<svg width="512" height="512" viewBox="0 0 512 512" fill="none" xmlns="http://www.w3.org/2000/svg">
<path d="M118.645 98.198L187.466 58.4641L256.287 98.198V177.666L187.466 217.4L118.645 177.666V98.198Z" fill="#E6D460" stroke="black" stroke-width="6"/>
<path d="M255.713 98.198L324.534 58.4641L393.355 98.198V177.666L324.534 217.4L255.713 177.666V98.198Z" fill="#ECDE83" stroke="black" stroke-width="6"/>
<path d="M118.645 334.324L187.466 294.59L256.287 334.324V413.792L187.466 453.525L118.645 413.792V334.324Z" fill="#B09D1C" stroke="black" stroke-width="6"/>
<path d="M255.713 334.324L324.534 294.59L393.355 334.324V413.792L324.534 453.525L255.713 413.792V334.324Z" fill="#D4BC21" stroke="black" stroke-width="6"/>
<path d="M187.179 216.837L256 177.103L324.821 216.837V296.305L256 336.038L187.179 296.305V216.837Z" fill="#E1CB3D" stroke="black" stroke-width="6"/>
<path d="M324.247 216.837L393.068 177.103L461.889 216.837V296.305L393.068 336.038L324.247 296.305V216.837Z" fill="#E6D460" stroke="black" stroke-width="6"/>
<path d="M50.1108 216.837L118.932 177.103L187.753 216.837V296.305L118.932 336.038L50.1108 296.305V216.837Z" fill="#D4BC21" stroke="black" stroke-width="6"/>
</svg>
